<svg width="35" height="36" viewBox="0 0 35 36" fill="none" xmlns="http://www.w3.org/2000/svg">
<path d="M18.75 4.25H16.25V31.75H18.75V4.25ZM16.25 0.5H18.75C20.7812 0.5 22.5 2.21875 22.5 4.25V31.75C22.5 33.8594 20.7812 35.5 18.75 35.5H16.25C14.1406 35.5 12.5 33.8594 12.5 31.75V4.25C12.5 2.21875 14.1406 0.5 16.25 0.5ZM6.25 19.25H3.75V31.75H6.25V19.25ZM3.75 15.5H6.25C8.28125 15.5 10 17.2188 10 19.25V31.75C10 33.8594 8.28125 35.5 6.25 35.5H3.75C1.64062 35.5 0 33.8594 0 31.75V19.25C0 17.2188 1.64062 15.5 3.75 15.5ZM28.75 9.25V31.75H31.25V9.25H28.75ZM25 9.25C25 7.21875 26.6406 5.5 28.75 5.5H31.25C33.2812 5.5 35 7.21875 35 9.25V31.75C35 33.8594 33.2812 35.5 31.25 35.5H28.75C26.6406 35.5 25 33.8594 25 31.75V9.25Z" fill="#00E59B"/>
</svg>
